<svg xmlns="http://www.w3.org/2000/svg" viewBox="0 0 320 124" width="320" height="124" font-family="&#39;IBM Plex Sans&#39;, system-ui, sans-serif" role="img" aria-label="Track-Op">
  <title>Track-Op — logo principal (fond encre)</title>
  <desc>Logo principal avec tagline et signature C-Ter. Pour fond sombre.</desc>

  
  

  
  <g transform="translate(2 2) scale(1.15)">
    <rect x="6" y="14" width="56" height="40" rx="3" fill="#2D2520" stroke="#F2EAD9" stroke-width="2.5"></rect>
    <rect x="12" y="20" width="18" height="5" fill="#2C5F8D"></rect>
    <rect x="32" y="20" width="6" height="5" fill="#5B8C4F"></rect>
    <rect x="12" y="28" width="10" height="5" fill="#C8553D"></rect>
    <rect x="24" y="28" width="28" height="5" fill="#E8B843"></rect>
    <rect x="12" y="36" width="36" height="5" fill="#5B8C4F" fill-opacity="0.7"></rect>
    <rect x="50" y="36" width="4" height="5" fill="#C8553D"></rect>
    <rect x="12" y="44" width="22" height="5" fill="#2C5F8D" fill-opacity="0.55"></rect>
    <path d="M54 41 L60 41 M58 39 L60 41 L58 43" stroke="#C8553D" stroke-width="1.8" stroke-linecap="round" stroke-linejoin="round" fill="none"></path>
    <path d="M22 54 L18 64 M48 54 L52 64" stroke="#F2EAD9" stroke-width="2.5" stroke-linecap="round"></path>
    <g transform="translate(56 38) rotate(18)">
      <rect x="0" y="0" width="14" height="30" rx="2" fill="#F2EAD9"></rect>
      <circle cx="7" cy="8" r="3.8" fill="#C8553D"></circle>
      <circle cx="7" cy="8" r="5.6" fill="none" stroke="#C8553D" stroke-width="0.8" stroke-opacity="0.6"></circle>
      <rect x="3" y="17" width="8" height="1.5" fill="#2D2520" fill-opacity="0.6"></rect>
      <rect x="3" y="21" width="8" height="1.5" fill="#2D2520" fill-opacity="0.6"></rect>
      <rect x="3" y="25" width="8" height="1.5" fill="#2D2520" fill-opacity="0.6"></rect>
    </g>
  </g>

  
  <text x="112" y="68" font-size="52" letter-spacing="-2.3">
    <tspan font-weight="700" fill="#F2EAD9">Track</tspan><tspan dx="4" font-weight="900" fill="#C8553D">Op</tspan>
  </text>
  <circle cx="300" cy="68" r="3.5" fill="#5B8C4F"></circle>

  
  <g transform="translate(0 100)" stroke="#C8553D">
    <circle cx="6" cy="6" r="4.5" fill="none" stroke-width="1"></circle>
    <circle cx="6" cy="6" r="1.6" fill="#C8553D" stroke="none"></circle>
    <line x1="6" y1="0" x2="6" y2="1.8" stroke-width="1" stroke-linecap="round"></line>
    <line x1="6" y1="10.2" x2="6" y2="12" stroke-width="1" stroke-linecap="round"></line>
    <line x1="0" y1="6" x2="1.8" y2="6" stroke-width="1" stroke-linecap="round"></line>
    <line x1="10.2" y1="6" x2="12" y2="6" stroke-width="1" stroke-linecap="round"></line>
  </g>
  <text x="156" y="111" font-family="&#39;JetBrains Mono&#39;, ui-monospace, Menlo, monospace" font-size="9.5" fill="#EDE3CE" letter-spacing="0.15" text-anchor="middle">
    le planning, clair d&#39;un coup d&#39;œil<tspan dx="10" opacity="0.7">© by C-Ter</tspan>
  </text>
  <g transform="translate(300 100)" stroke="#C8553D">
    <circle cx="6" cy="6" r="4.5" fill="none" stroke-width="1"></circle>
    <circle cx="6" cy="6" r="1.6" fill="#C8553D" stroke="none"></circle>
    <line x1="6" y1="0" x2="6" y2="1.8" stroke-width="1" stroke-linecap="round"></line>
    <line x1="6" y1="10.2" x2="6" y2="12" stroke-width="1" stroke-linecap="round"></line>
    <line x1="0" y1="6" x2="1.8" y2="6" stroke-width="1" stroke-linecap="round"></line>
    <line x1="10.2" y1="6" x2="12" y2="6" stroke-width="1" stroke-linecap="round"></line>
  </g>
</svg>